#!OML:ASF F:\VICON\USERDATA\INSTALL\rory3\rory3.ASF
:FULLY-SPECIFIED
:DEGREES
1328
root -11.9432 17.727 7.76798 -539.077 37.8406 179.443
lowerback 9.36581 2.80259 -0.234048
upperback 0.58269 3.76113 0.297658
thorax -4.67428 1.88488 -0.0591024
lowerneck -15.0747 -7.26484 -11.2097
upperneck 30.1762 -9.10931 9.94192
head 13.7865 -3.49199 4.49896
rclavicle -2.69105e-014 2.14687e-014
rhumerus -32.3751 -4.16965 -86.1586
rradius 32.7494
rwrist 4.79473
rhand -16.4281 9.23252
rfingers 7.12502
rthumb 9.78713 -20.52
lclavicle -2.69105e-014 2.14687e-014
lhumerus -41.2231 4.26087 82.1765
lradius 30.5395
lwrist -7.5812
lhand -16.8993 24.1433
lfingers 7.12502
lthumb 9.33246 53.9167
rfemur 10.717 9.17271 26.0165
rtibia 20.219
rfoot -8.675 22.8172
rtoes 22.2727
lfemur -22.0609 -7.90334 -17.5813
ltibia 21.0507
lfoot -2.49829 -13.1588
ltoes -1.97934
1329
root -11.8899 17.7338 7.66025 -539.275 38.2802 179.224
lowerback 9.28489 2.80663 -0.450651
upperback 0.602753 3.73844 0.188699
thorax -4.61444 1.87723 -0.043136
lowerneck -14.9979 -7.28008 -11.0633
upperneck 30.1122 -9.19327 9.96557
head 13.7455 -3.51299 4.46633
rclavicle 6.12008e-014 -1.90833e-014
rhumerus -32.6356 -4.85417 -85.945
rradius 32.3181
rwrist 5.06072
rhand -16.779 8.50245
rfingers 7.12502
rthumb 9.4486 -21.2657
lclavicle 6.12008e-014 -1.90833e-014
lhumerus -41.0649 4.37518 81.9572
lradius 30.4193
lwrist -7.59332
lhand -16.6945 24.089
lfingers 7.12502
lthumb 9.5301 53.8535
rfemur 10.319 9.19113 25.6789
rtibia 21.6927
rfoot -7.72529 23.1224
rtoes 22.6535
lfemur -21.5685 -7.73357 -17.8356
ltibia 21.1353
lfoot -3.04643 -12.4274
ltoes -7.38667
1330
root -11.8392 17.7425 7.54945 -539.551 38.5592 178.96
lowerback 9.24386 2.73588 -0.638431
upperback 0.632418 3.61999 0.0679857
thorax -4.56346 1.82175 -0.044661
lowerneck -14.9697 -7.25708 -10.883
upperneck 30.1223 -9.20827 9.93391
head 13.7319 -3.50362 4.42021
rclavicle 6.4605e-015 -4.96962e-015
rhumerus -32.9366 -5.57076 -85.6765
rradius 31.8598
rwrist 5.33555
rhand -17.0742 8.03762
rfingers 7.12502
rthumb 9.16371 -21.7433
lclavicle 6.4605e-015 -4.96962e-015
lhumerus -40.9751 4.54712 81.7336
lradius 30.2294
lwrist -7.72329
lhand -16.8153 24.1648
lfingers 7.12502
lthumb 9.4136 53.9345
rfemur 9.8467 8.84107 25.2201
rtibia 23.4218
rfoot -6.76102 23.4506
rtoes 22.7371
lfemur -20.9735 -7.64662 -18.1382
ltibia 21.1313
lfoot -3.6158 -11.6193
ltoes -10.4631
1331
root -11.7886 17.7485 7.43986 -539.92 38.8073 178.654
lowerback 9.27517 2.66405 -0.848925
upperback 0.669546 3.49858 -0.0500526
thorax -4.5464 1.76548 -0.033956
lowerneck -14.9342 -7.25444 -10.8129
upperneck 30.0951 -9.24709 9.9776
head 13.7158 -3.5097 4.41829
rclavicle -1.96548e-014 6.16232e-015
rhumerus -33.2972 -6.47438 -85.2622
rradius 31.4206
rwrist 5.53111
rhand -16.78 8.23214
rfingers 7.12502
rthumb 9.44758 -21.5361
lclavicle -1.96548e-014 6.16232e-015
lhumerus -40.8551 4.71286 81.5479
lradius 29.935
lwrist -7.8209
lhand -16.8179 24.1641
lfingers 7.12502
lthumb 9.41102 53.9339
rfemur 9.34294 8.35938 24.6544
rtibia 25.3095
rfoot -5.41268 23.7624
rtoes 23.2695
lfemur -20.3018 -7.44249 -18.499
ltibia 21.1149
lfoot -3.94651 -11.6655
ltoes -9.13721
1332
root -11.7329 17.756 7.3319 -540.253 39.3446 178.397
lowerback 9.33126 2.69265 -1.1234
upperback 0.664071 3.50391 -0.133172
thorax -4.59473 1.77292 0.0292832
lowerneck -14.8872 -7.28218 -10.852
upperneck 30.1283 -9.3311 10.1315
head 13.7439 -3.53041 4.47655
rclavicle 9.65348e-015 5.96354e-016
rhumerus -33.733 -7.44927 -84.7706
rradius 30.998
rwrist 5.71238
rhand -16.3341 8.44184
rfingers 7.12502
rthumb 9.87781 -21.3064
lclavicle 9.65348e-015 5.96354e-016
lhumerus -40.773 4.78393 81.3914
lradius 29.6965
lwrist -7.78817
lhand -16.7194 24.3034
lfingers 7.12502
lthumb 9.50605 54.069
rfemur 8.69227 8.07562 24.0988
rtibia 27.3174
rfoot -3.80245 24.0128
rtoes 23.2237
lfemur -19.5794 -7.00176 -18.7935
ltibia 21.1074
lfoot -4.19961 -12.3252
ltoes -6.85221
1333
root -11.6771 17.7649 7.22685 -540.436 39.9665 178.411
lowerback 9.59366 2.71576 -1.24831
upperback 0.523674 3.51373 -0.12924
thorax -4.89615 1.77915 0.0837333
lowerneck -14.7357 -7.26869 -10.8818
upperneck 30.2758 -9.32857 10.1961
head 13.7806 -3.51957 4.52014
rclavicle -1.13059e-014 -1.03368e-014
rhumerus -34.3965 -8.23216 -84.2706
rradius 30.5649
rwrist 5.90578
rhand -16.3366 8.7112
rfingers 7.12502
rthumb 9.87538 -21.0372
lclavicle -1.13059e-014 -1.03368e-014
lhumerus -40.9713 4.97884 81.1432
lradius 29.5494
lwrist -7.93351
lhand -16.5368 24.3193
lfingers 7.12502
lthumb 9.68224 54.0768
rfemur 7.91758 7.84195 23.7725
rtibia 29.4428
rfoot -1.85163 24.1967
rtoes 22.9101
lfemur -18.8105 -6.42782 -18.8658
ltibia 21.0742
lfoot -4.48066 -13.1396
ltoes -5.59406
